<?xml version="1.0" encoding="UTF-8"?>
<!DOCTYPE svg PUBLIC "-//W3C//DTD SVG 1.1//EN" "http://www.w3.org/Graphics/SVG/1.1/DTD/svg11.dtd">
<svg xmlns="http://www.w3.org/2000/svg" version="1.1" width="500px" height="500px" style="shape-rendering:geometricPrecision; text-rendering:geometricPrecision; image-rendering:optimizeQuality; fill-rule:evenodd; clip-rule:evenodd" xmlns:xlink="http://www.w3.org/1999/xlink">
<g><path style="opacity:1" fill="#e54d03" d="M 244.5,158.5 C 235.105,158.612 225.772,159.445 216.5,161C 215.944,161.383 215.611,161.883 215.5,162.5C 208.635,164.049 201.802,164.716 195,164.5C 182.022,117.916 169.688,71.249 158,24.5C 211.257,65.8793 264.424,107.379 317.5,149C 293.234,152.742 268.901,155.908 244.5,158.5 Z"/></g>
<g><path style="opacity:1" fill="#e54d03" d="M 461.5,54.5 C 465.29,54.0077 465.956,54.841 463.5,57C 441,76.8333 418.5,96.6667 396,116.5C 392.079,132.771 388.412,149.104 385,165.5C 363.28,159.778 341.447,154.445 319.5,149.5C 326.139,129.416 333.473,109.582 341.5,90C 381.642,78.226 421.642,66.3927 461.5,54.5 Z"/></g>
<g><path style="opacity:1" fill="#e54d03" d="M 78.5,130.5 C 79.6009,129.402 80.9343,129.235 82.5,130C 119.203,141.734 155.87,153.568 192.5,165.5C 207.42,191.672 222.087,218.005 236.5,244.5C 203.339,235.115 170.339,224.449 137.5,212.5C 117.812,185.1 98.1451,157.766 78.5,130.5 Z"/></g>
<g><path style="opacity:1" fill="#e54d03" d="M 314.5,153.5 C 335.279,157.523 355.946,162.19 376.5,167.5C 377.932,167.733 378.432,168.4 378,169.5C 357.923,184.788 337.756,199.955 317.5,215C 292.667,225.5 267.833,236 243,246.5C 227.531,221.231 213.365,195.231 200.5,168.5C 238.719,164.14 276.719,159.14 314.5,153.5 Z"/></g>
<g><path style="opacity:0.792" fill="#d3591c" d="M 244.5,158.5 C 235.043,160.374 225.377,161.707 215.5,162.5C 215.611,161.883 215.944,161.383 216.5,161C 225.772,159.445 235.105,158.612 244.5,158.5 Z"/></g>
<g><path style="opacity:1" fill="#e44d04" d="M 382.5,170.5 C 383.124,170.917 383.457,171.584 383.5,172.5C 374.64,213.31 365.473,253.977 356,294.5C 344.5,268.833 333,243.167 321.5,217.5C 342.044,202.067 362.377,186.4 382.5,170.5 Z"/></g>
<g><path style="opacity:1" fill="#dc5412" d="M 105.5,214.5 C 90.4368,214.386 75.4368,214.052 60.5,213.5C 55.7147,215.148 50.7147,215.815 45.5,215.5C 45.5,214.5 45.5,213.5 45.5,212.5C 42.9339,212.656 40.4339,212.322 38,211.5C 36.9701,211.836 36.4701,212.503 36.5,213.5C 35.5222,213.189 34.8555,212.522 34.5,211.5C 36.3333,211.167 38.1667,210.833 40,210.5C 62.0002,211.657 83.8336,212.99 105.5,214.5 Z"/></g>
<g><path style="opacity:1" fill="#e54d02" d="M 105.5,214.5 C 116.558,214.27 127.558,214.936 138.5,216.5C 156.167,243.167 173.833,269.833 191.5,296.5C 163.506,297.667 135.506,297.833 107.5,297C 83.623,269.294 59.9563,241.461 36.5,213.5C 36.4701,212.503 36.9701,211.836 38,211.5C 40.4339,212.322 42.9339,212.656 45.5,212.5C 45.5,213.5 45.5,214.5 45.5,215.5C 50.7147,215.815 55.7147,215.148 60.5,213.5C 75.4368,214.052 90.4368,214.386 105.5,214.5 Z"/></g>
<g><path style="opacity:1" fill="#e44e05" d="M 146.5,221.5 C 146.56,220.957 146.893,220.624 147.5,220.5C 177.581,230.582 207.581,240.749 237.5,251C 223.629,265.869 210.129,281.036 197,296.5C 179.912,271.596 163.079,246.596 146.5,221.5 Z"/></g>
<g><path style="opacity:1" fill="#e44e04" d="M 315.5,219.5 C 318.05,219.561 319.55,220.894 320,223.5C 329.726,245.952 339.726,268.285 350,290.5C 350.667,291.5 350.667,292.5 350,293.5C 315.643,279.071 281.476,264.237 247.5,249C 270.474,239.629 293.141,229.795 315.5,219.5 Z"/></g>
<g><path style="opacity:1" fill="#e44e04" d="M 266.5,297.5 C 246.004,296.668 225.337,296.168 204.5,296C 205.823,295.184 206.489,294.017 206.5,292.5C 215.457,281.706 224.624,271.039 234,260.5C 236.714,257.449 239.714,254.782 243,252.5C 276.582,266.472 310.082,280.638 343.5,295C 317.867,296.384 292.201,297.217 266.5,297.5 Z"/></g>
<g><path style="opacity:1" fill="#d65516" d="M 206.5,292.5 C 206.489,294.017 205.823,295.184 204.5,296C 225.337,296.168 246.004,296.668 266.5,297.5C 244.831,297.667 223.164,297.5 201.5,297C 203.037,295.293 204.704,293.793 206.5,292.5 Z"/></g>
<g><path style="opacity:1" fill="#e54d03" d="M 252.5,305.5 C 252.196,304.85 251.863,304.183 251.5,303.5C 276.16,302.667 300.827,302.167 325.5,302C 326.056,301.617 326.389,301.117 326.5,300.5C 336.191,300.658 345.857,300.325 355.5,299.5C 351.196,325.856 346.696,352.189 342,378.5C 311.688,354.681 281.854,330.348 252.5,305.5 Z"/></g>
<g><path style="opacity:1" fill="#d15a20" d="M 326.5,300.5 C 326.389,301.117 326.056,301.617 325.5,302C 300.827,302.167 276.16,302.667 251.5,303.5C 251.863,304.183 252.196,304.85 252.5,305.5C 250.804,305.315 249.471,304.481 248.5,303C 249.167,302.667 249.833,302.333 250.5,302C 275.835,301.487 301.168,300.987 326.5,300.5 Z"/></g>
<g><path style="opacity:1" fill="#e44e05" d="M 120.5,303.5 C 158.664,302.336 196.998,302.169 235.5,303C 222.037,314.127 208.871,325.627 196,337.5C 170.952,325.874 145.785,314.541 120.5,303.5 Z"/></g>
<g><path style="opacity:1" fill="#e54d02" d="M 137.5,378.5 C 103.483,379.16 69.8168,378.493 36.5,376.5C 49.1626,362.504 62.1626,348.838 75.5,335.5C 79.2343,332.769 82.2343,329.436 84.5,325.5C 91.4439,316.888 99.1106,308.888 107.5,301.5C 135.65,314.076 163.65,326.909 191.5,340C 173.881,353.466 155.881,366.299 137.5,378.5 Z"/></g>
<g><path style="opacity:1" fill="#e54d03" d="M 254.5,313.5 C 280.337,334.5 306.337,355.333 332.5,376C 301.5,376.667 270.5,376.667 239.5,376C 226.167,364 212.833,352 199.5,340C 205.376,334.581 211.376,329.415 217.5,324.5C 220.178,323.999 222.178,322.499 223.5,320C 226.368,318.617 229.368,317.784 232.5,317.5C 232.051,315.023 232.717,313.023 234.5,311.5C 236.367,314.229 237.367,313.896 237.5,310.5C 238.5,310.5 239.5,310.5 240.5,310.5C 240.5,309.5 240.5,308.5 240.5,307.5C 242.199,307.34 243.866,307.506 245.5,308C 248.111,310.439 251.111,312.272 254.5,313.5 Z"/></g>
<g><path style="opacity:1" fill="#da5312" d="M 254.5,313.5 C 251.111,312.272 248.111,310.439 245.5,308C 243.866,307.506 242.199,307.34 240.5,307.5C 240.5,308.5 240.5,309.5 240.5,310.5C 239.5,310.5 238.5,310.5 237.5,310.5C 237.367,313.896 236.367,314.229 234.5,311.5C 232.717,313.023 232.051,315.023 232.5,317.5C 229.368,317.784 226.368,318.617 223.5,320C 222.178,322.499 220.178,323.999 217.5,324.5C 224.897,316.603 233.064,309.603 242,303.5C 246.632,306.304 250.799,309.637 254.5,313.5 Z"/></g>
<g><path style="opacity:0.816" fill="#d26533" d="M 84.5,325.5 C 82.2343,329.436 79.2343,332.769 75.5,335.5C 77.7657,331.564 80.7657,328.231 84.5,325.5 Z"/></g>
<g><path style="opacity:1" fill="#e44d03" d="M 194.5,342.5 C 195.552,342.351 196.552,342.517 197.5,343C 209.905,354.616 222.405,366.116 235,377.5C 235.667,378.167 235.667,378.833 235,379.5C 199.924,407.62 164.758,435.62 129.5,463.5C 132.094,436.498 135.594,409.498 140,382.5C 158.323,369.268 176.49,355.934 194.5,342.5 Z"/></g>
<g><path style="opacity:0.753" fill="#de5e23" d="M 36.5,376.5 C 69.8168,378.493 103.483,379.16 137.5,378.5C 103.331,379.83 68.9976,379.83 34.5,378.5C 34.8555,377.478 35.5222,376.811 36.5,376.5 Z"/></g>
<g><path style="opacity:1" fill="#d75313" d="M 240.5,382.5 C 272.664,381.336 304.997,381.169 337.5,382C 327.779,387.192 318.113,392.358 308.5,397.5C 309.29,396.206 310.29,395.039 311.5,394C 311.167,393.667 310.833,393.333 310.5,393C 311.833,392.667 313.167,392.333 314.5,392C 313.549,391.282 313.383,390.449 314,389.5C 315.96,391.899 318.126,392.065 320.5,390C 320.167,389.667 319.833,389.333 319.5,389C 322.094,388.37 324.427,387.203 326.5,385.5C 326.167,384.833 325.833,384.167 325.5,383.5C 297.175,382.5 268.841,382.167 240.5,382.5 Z"/></g>
<g><path style="opacity:1" fill="#e44d04" d="M 240.5,382.5 C 268.841,382.167 297.175,382.5 325.5,383.5C 325.833,384.167 326.167,384.833 326.5,385.5C 324.427,387.203 322.094,388.37 319.5,389C 319.833,389.333 320.167,389.667 320.5,390C 318.126,392.065 315.96,391.899 314,389.5C 313.383,390.449 313.549,391.282 314.5,392C 313.167,392.333 311.833,392.667 310.5,393C 310.833,393.333 311.167,393.667 311.5,394C 310.29,395.039 309.29,396.206 308.5,397.5C 263.794,422.94 218.961,448.273 174,473.5C 173.5,473.333 173,473.167 172.5,473C 194.645,442.366 217.312,412.2 240.5,382.5 Z"/></g>
</svg>
